#!OML:ASF E:\motion texture\Top Level 1\Subject 1\Session 1\male.ASF
:FULLY-SPECIFIED
:DEGREES
450
root -1.90545 17.9077 3.74413 70.3124 -78.7976 -65.6786
lowerback -0.90576 5.75872 5.22917
upperback 0.314264 7.64443 -5.94923
thorax 2.3517 3.9366 -8.86719
lowerneck -9.16242 13.8995 3.06064
upperneck 35.2684 20.5307 -5.00975
head 14.6036 8.17058 0.495116
rclavicle 3.81667e-014 3.49861e-014
rhumerus -22.997 0.473992 -79.5233
rradius 39.4244
rwrist 11.6304
rhand -12.5243 -22.1827
rfingers 7.12502
rthumb 13.5517 -51.7217
lclavicle 3.81667e-014 3.49861e-014
lhumerus -23.8806 19.2251 61.5312
lradius 31.6371
lwrist -35.5811
lhand -17.4808 22.8609
lfingers 7.12502
lthumb 8.77138 52.6587
rfemur -0.58546 0.44606 33.1723
rtibia 27.8626
rfoot -12.5201 -8.68403
rtoes -9.07142
lfemur -26.9512 -7.74599 4.74877
ltibia 17.532
lfoot -7.5282 0.00282702
ltoes -18.6805
451
root -2.02711 17.8913 3.77623 71.2031 -78.8731 -66.5825
lowerback -0.873784 5.7541 5.22205
upperback 0.340362 7.6393 -5.9343
thorax 2.35694 3.93469 -8.84935
lowerneck -9.1555 13.8929 3.08324
upperneck 35.2933 20.5184 -5.02528
head 14.6186 8.16292 0.483929
rclavicle 5.56597e-014 1.90833e-014
rhumerus -23.2079 0.239234 -79.417
rradius 39.0494
rwrist 11.7325
rhand -12.4451 -22.2083
rfingers 7.12502
rthumb 13.6281 -51.7422
lclavicle 5.56597e-014 1.90833e-014
lhumerus -23.8159 19.8296 61.0337
lradius 30.9672
lwrist -35.6496
lhand -16.9388 22.6757
lfingers 7.12502
lthumb 9.29441 52.4508
rfemur -0.537336 0.367378 33.0091
rtibia 28.5053
rfoot -12.3579 -8.4885
rtoes -9.49122
lfemur -27.0747 -7.7697 4.62424
ltibia 17.511
lfoot -7.40725 -0.00324701
ltoes -18.552
452
root -2.14938 17.8743 3.80892 72.0459 -78.9468 -67.4499
lowerback -0.832087 5.74739 5.20627
upperback 0.372544 7.63169 -5.92013
thorax 2.36156 3.93153 -8.82829
lowerneck -9.14586 13.8868 3.10509
upperneck 35.319 20.5067 -5.04086
head 14.6334 8.15545 0.472675
rclavicle 1.31993e-013 -1.59028e-014
rhumerus -23.4233 -0.0116942 -79.3102
rradius 38.6552
rwrist 11.8462
rhand -12.3533 -22.2296
rfingers 7.12502
rthumb 13.7165 -51.7575
lclavicle 1.31993e-013 -1.59028e-014
lhumerus -23.733 20.397 60.5823
lradius 30.3261
lwrist -35.7031
lhand -16.3989 22.4603
lfingers 7.12502
lthumb 9.81527 52.2115
rfemur -0.521282 0.267568 32.8299
rtibia 29.2111
rfoot -12.141 -8.2865
rtoes -9.83552
lfemur -27.1927 -7.78003 4.4745
ltibia 17.5898
lfoot -7.28684 -0.0535545
ltoes -18.3879
453
root -2.27222 17.8571 3.84217 72.8318 -79.0194 -68.2716
lowerback -0.780127 5.738 5.18112
upperback 0.410829 7.62078 -5.90677
thorax 2.36504 3.92666 -8.80379
lowerneck -9.13414 13.8809 3.12481
upperneck 35.3459 20.4956 -5.05608
head 14.648 8.14797 0.461765
rclavicle -7.63333e-014 2.8625e-014
rhumerus -23.6423 -0.278189 -79.2027
rradius 38.2428
rwrist 11.9715
rhand -12.2514 -22.2459
rfingers 7.12502
rthumb 13.8148 -51.7672
lclavicle -7.63333e-014 2.8625e-014
lhumerus -23.6318 20.9301 60.1784
lradius 29.7148
lwrist -35.738
lhand -15.8644 22.219
lfingers 7.12502
lthumb 10.331 51.9452
rfemur -0.538048 0.145639 32.6338
rtibia 29.9787
rfoot -11.8637 -8.08087
rtoes -10.1006
lfemur -27.3044 -7.77895 4.29884
ltibia 17.7637
lfoot -7.16948 -0.146839
ltoes -18.187
454
root -2.39553 17.8396 3.87592 73.5608 -79.0925 -69.0471
lowerback -0.717286 5.72591 5.14669
upperback 0.454433 7.60653 -5.89533
thorax 2.36637 3.92001 -8.77716
lowerneck -9.12051 13.8757 3.14284
upperneck 35.3743 20.4852 -5.06991
head 14.6626 8.14071 0.451568
rclavicle -1.94809e-014 6.36111e-015
rhumerus -23.8651 -0.558866 -79.0961
rradius 37.8131
rwrist 12.109
rhand -12.1387 -22.2562
rfingers 7.12502
rthumb 13.9233 -51.7701
lclavicle -1.94809e-014 6.36111e-015
lhumerus -23.5125 21.4294 59.822
lradius 29.1353
lwrist -35.75
lhand -15.3371 21.9564
lfingers 7.12502
lthumb 10.8396 51.6566
rfemur -0.589287 0.00164688 32.4197
rtibia 30.8071
rfoot -11.5199 -7.87417
rtoes -10.2832
lfemur -27.4097 -7.76743 4.09699
ltibia 18.0295
lfoot -7.05776 -0.279854
ltoes -17.951
455
root -2.51926 17.822 3.91009 74.2302 -79.167 -69.7733
lowerback -0.645144 5.71084 5.10128
upperback 0.503594 7.5885 -5.88512
thorax 2.3663 3.91133 -8.74658
lowerneck -9.10431 13.8712 3.15898
upperneck 35.4044 20.4759 -5.08295
head 14.6771 8.1337 0.441889
rclavicle -9.93923e-015 5.40694e-014
rhumerus -24.0898 -0.853331 -78.9892
rradius 37.3661
rwrist 12.2624
rhand -12.0205 -22.2573
rfingers 7.12502
rthumb 14.0372 -51.7633
lclavicle -9.93923e-015 5.40694e-014
lhumerus -23.3764 21.8953 59.5148
lradius 28.5906
lwrist -35.7338
lhand -14.8283 21.6664
lfingers 7.12502
lthumb 11.3303 51.3404
rfemur -0.676394 -0.163828 32.1876
rtibia 31.6953
rfoot -11.0973 -7.67171
rtoes -10.3551
lfemur -27.5062 -7.74907 3.87016
ltibia 18.379
lfoot -6.95285 -0.44755
ltoes -17.68
456
root -2.64334 17.8044 3.94464 74.8361 -79.244 -70.4457
lowerback -0.562702 5.69237 5.04445
upperback 0.557574 7.56609 -5.87656
thorax 2.36337 3.90024 -8.7124
lowerneck -9.08633 13.8674 3.17203
upperneck 35.4365 20.4677 -5.09435
head 14.6915 8.12686 0.43329
rclavicle 1.78906e-014 -6.36111e-014
rhumerus -24.3171 -1.16306 -78.8819
rradius 36.9048
rwrist 12.431
rhand -11.8929 -22.2499
rfingers 7.12502
rthumb 14.1602 -51.7473
lclavicle 1.78906e-014 -6.36111e-014
lhumerus -23.2241 22.3282 59.2571
lradius 28.0819
lwrist -35.6858
lhand -14.3415 21.3562
lfingers 7.12502
lthumb 11.7998 51.0038
rfemur -0.800265 -0.350979 31.9367
rtibia 32.6415
rfoot -10.5929 -7.47884
rtoes -10.3141
lfemur -27.5942 -7.72581 3.61821
ltibia 18.8078
lfoot -6.85719 -0.645937
ltoes -17.376
457
root -2.76769 17.787 3.97948 75.3781 -79.3228 -71.0641
lowerback -0.470313 5.67004 4.97699
upperback 0.616597 7.53864 -5.86898
thorax 2.35794 3.88641 -8.67434
lowerneck -9.06647 13.8648 3.18264
upperneck 35.4703 20.4614 -5.10512
head 14.7061 8.12055 0.425439
rclavicle 6.91771e-014 1.27222e-014
rhumerus -24.5449 -1.48375 -78.7746
rradius 36.4302
rwrist 12.6116
rhand -11.7558 -22.2364
rfingers 7.12502
rthumb 14.2923 -51.7245
lclavicle 6.91771e-014 1.27222e-014
lhumerus -23.0566 22.7289 59.0492
lradius 27.6108
lwrist -35.6025
lhand -13.8791 21.0419
lfingers 7.12502
lthumb 12.2457 50.6634
rfemur -0.961654 -0.560039 31.6689
rtibia 33.644
rfoot -10.006 -7.31357
rtoes -10.1924
lfemur -27.6711 -7.70117 3.3445
ltibia 19.3078
lfoot -6.77336 -0.869304
ltoes -17.0376
458
root -2.8922 17.7699 4.01452 75.8627 -79.4026 -71.6332
lowerback -0.367892 5.64457 4.90116
upperback 0.679033 7.50703 -5.86305
thorax 2.34883 3.87026 -8.63441
lowerneck -9.0441 13.863 3.19212
upperneck 35.5062 20.4558 -5.11417
head 14.7207 8.1145 0.418315
rclavicle 2.5842e-014 5.40694e-014
rhumerus -24.7746 -1.81996 -78.6674
rradius 35.9446
rwrist 12.8074
rhand -11.6147 -22.2154
rfingers 7.12502
rthumb 14.4283 -51.6939
lclavicle 2.5842e-014 5.40694e-014
lhumerus -22.8743 23.0901 58.8913
lradius 27.1795
lwrist -35.4778
lhand -13.4448 20.71
lfingers 7.12502
lthumb 12.6644 50.3061
rfemur -1.16265 -0.790775 31.3863
rtibia 34.7009
rfoot -9.3419 -7.17918
rtoes -10.0034
lfemur -27.7366 -7.67629 3.053
ltibia 19.8713
lfoot -6.70255 -1.11234
ltoes -16.6677
459
root -3.01676 17.753 4.0497 76.3041 -79.4848 -72.1658
lowerback -0.257702 5.61623 4.81574
upperback 0.745272 7.47156 -5.85781
thorax 2.33751 3.85193 -8.59057
lowerneck -9.02091 13.8623 3.19829
upperneck 35.5437 20.4525 -5.12277
head 14.7356 8.10889 0.41211
rclavicle 2.54444e-014 7.95139e-014
rhumerus -25.0034 -2.1704 -78.5589
rradius 35.4498
rwrist 13.0168
rhand -11.4609 -22.1872
rfingers 7.12502
rthumb 14.5764 -51.655
lclavicle 2.54444e-014 7.95139e-014
lhumerus -22.677 23.4164 58.7846
lradius 26.7879
lwrist -35.3128
lhand -13.0454 20.3754
lfingers 7.12502
lthumb 13.0494 49.9472
rfemur -1.40611 -1.04122 31.0891
rtibia 35.8116
rfoot -8.60644 -7.07535
rtoes -9.71831
lfemur -27.7895 -7.65239 2.74583
ltibia 20.4904
lfoot -6.64675 -1.36812
ltoes -16.2742
460
root -3.14135 17.7367 4.08496 76.6816 -79.5686 -72.6414
lowerback -0.139754 5.58347 4.7209
upperback 0.815582 7.43007 -5.85304
thorax 2.32387 3.83036 -8.54279
lowerneck -8.99651 13.8635 3.2014
upperneck 35.5827 20.452 -5.13056
head 14.7506 8.10409 0.40702
rclavicle -8.70677e-014 -2.54444e-014
rhumerus -25.2304 -2.53201 -78.4494
rradius 34.9481
rwrist 13.2384
rhand -11.3044 -22.152
rfingers 7.12502
rthumb 14.7273 -51.6088
lclavicle -8.70677e-014 -2.54444e-014
lhumerus -22.4669 23.7025 58.7288
lradius 26.4389
lwrist -35.103
lhand -12.6778 20.0444
lfingers 7.12502
lthumb 13.4037 49.5932
rfemur -1.68992 -1.31434 30.7784
rtibia 36.9709
rfoot -7.80332 -7.01152
rtoes -9.33682
lfemur -27.8278 -7.63506 2.42444
ltibia 21.1555
lfoot -6.60815 -1.63314
ltoes -15.8512
461
root -3.26589 17.7209 4.12024 77.0032 -79.6555 -73.0669
lowerback -0.0145542 5.54739 4.61652
upperback 0.889079 7.38398 -5.84932
thorax 2.30764 3.8062 -8.49148
lowerneck -8.97048 13.8653 3.20116
upperneck 35.6222 20.4525 -5.13712
head 14.7649 8.09947 0.402859
rclavicle -5.88403e-014 1.24042e-013
rhumerus -25.4564 -2.90827 -78.3386
rradius 34.4407
rwrist 13.4729
rhand -11.144 -22.1105
rfingers 7.12502
rthumb 14.8818 -51.5559
lclavicle -5.88403e-014 1.24042e-013
lhumerus -22.2445 23.9476 58.7235
lradius 26.1331
lwrist -34.8521
lhand -12.3447 19.7265
lfingers 7.12502
lthumb 13.7248 49.2538
rfemur -2.01474 -1.60882 30.454
rtibia 38.1754
rfoot -6.93708 -6.99396
rtoes -8.86539
lfemur -27.8497 -7.62614 2.09019
ltibia 21.8575
lfoot -6.5889 -1.90256
ltoes -15.4004
462
root -3.39028 17.7058 4.15539 77.2748 -79.7452 -73.4471
lowerback 0.117331 5.50788 4.50263
upperback 0.965231 7.33307 -5.84621
thorax 2.28853 3.77931 -8.43615
lowerneck -8.94369 13.8683 3.19779
upperneck 35.6633 20.455 -5.14245
head 14.7794 8.09533 0.399875
rclavicle 4.29375e-014 -5.08889e-014
rhumerus -25.6807 -3.29483 -78.2266
rradius 33.9316
rwrist 13.7175
rhand -10.9812 -22.0624
rfingers 7.12502
rthumb 15.0386 -51.4962
lclavicle 4.29375e-014 -5.08889e-014
lhumerus -22.0123 24.1505 58.7682
lradius 25.8733
lwrist -34.5625
lhand -12.0447 19.4328
lfingers 7.12502
lthumb 14.0139 48.9405
rfemur -2.38115 -1.92175 30.1184
rtibia 39.4194
rfoot -6.01286 -7.02522
rtoes -8.30771
lfemur -27.8538 -7.62575 1.74607
ltibia 22.5877
lfoot -6.59092 -2.17314
ltoes -14.9293
